# xmcd
#
# Track frame offsets:
# 150
# 15680
# 29312
# 42135
# 49142
# 60215
# 70695
# 81870
# 92842
# 106615
# 114280
# 125997
# 134170
# 145820
# 162640
# 179320
# 190650
# 202377
# 211515
# 220612
#
# Disc length: 3026 seconds
#
#
# Revision: 0
# Processed by: cddbd v1.5.1PL2 Copyright (c) Steve Scherf et al.
# Submitted via: FreeRIP 2.945 
#
DISCID=1c0bd014
DTITLE=Fuchs und Safran Familienmusik - Unser Singan und Spüln
DYEAR=1995
DGENRE=Volksmusik
TTITLE0=Johannes-Marsch
TTITLE1=Da Summa is uma
TTITLE2=Familienpolka
TTITLE3=Am Himml san d'Sterndl
TTITLE4=Dirnderl-Boarischer
TTITLE5=Der Brandhof
TTITLE6=Spezi-Polka
TTITLE7=Dos host nur du mei Büable gmocht
TTITLE8=Sommereben-Franzé
TTITLE9=Almfrieden
TTITLE10=In der Weststeiermark
TTITLE11=Und da Guggu im Wald
TTITLE12=Johanna-Walzer
TTITLE13=Der Rosenstock
TTITLE14=Still wird's
TTITLE15=Spinn, spinn, Spinnerin
TTITLE16=A stade Weis
TTITLE17=Mei Steirerland
TTITLE18=Glachterpolka
TTITLE19=Dreihoedi
EXTD=
EXTT0=
EXTT1=
EXTT2=
EXTT3=
EXTT4=
EXTT5=
EXTT6=
EXTT7=
EXTT8=
EXTT9=
EXTT10=
EXTT11=
EXTT12=
EXTT13=
EXTT14=
EXTT15=
EXTT16=
EXTT17=
EXTT18=
EXTT19=
PLAYORDER=
